<svg xmlns="http://www.w3.org/2000/svg" viewBox="0 0 64 64" role="img" aria-label="HealthBridge">
  <defs>
    <linearGradient id="hb" x1="0" y1="0" x2="1" y2="1">
      <stop offset="0" stop-color="#0f766e"/>
      <stop offset="1" stop-color="#14b8a6"/>
    </linearGradient>
  </defs>
  <rect width="64" height="64" rx="14" fill="#ffffff"/>
  <path d="M32 8c8.8 0 16 7.2 16 16v10.5c0 10.2-7 19.6-16 21.5-9-1.9-16-11.3-16-21.5V24c0-8.8 7.2-16 16-16z" fill="url(#hb)"/>
  <path d="M28.5 20.5h7v8h8v7h-8v8h-7v-8h-8v-7h8v-8z" fill="#ffffff"/>
  <path d="M18 46c6.2-5.2 13.1-7.8 20.5-7.8S52.2 40.8 58 46" fill="none" stroke="#0f766e" stroke-width="3" stroke-linecap="round"/>
</svg>
